{
    "asset" : {
        "generator" : "Khronos glTF Blender I/O v1.7.33",
        "version" : "2.0"
    },
    "extensionsUsed" : [
        "KHR_materials_transmission"
    ],
    "scene" : 0,
    "scenes" : [
        {
            "name" : "Scene",
            "nodes" : [
                0
            ]
        }
    ],
    "nodes" : [
        {
            "mesh" : 0,
            "name" : "CarC6_0003.001",
            "rotation" : [
                0.7071068286895752,
                0,
                0,
                0.7071067094802856
            ]
        }
    ],
    "materials" : [
        {
            "doubleSided" : true,
            "name" : "map_CC6_001.001",
            "pbrMetallicRoughness" : {
                "baseColorTexture" : {
                    "index" : 0
                },
                "metallicFactor" : 0,
                "roughnessFactor" : 0.8945907354354858
            }
        },
        {
            "alphaMode" : "BLEND",
            "doubleSided" : true,
            "extensions" : {
                "KHR_materials_transmission" : {
                    "transmissionFactor" : 1
                }
            },
            "name" : "map_Glass_CC6_01.003",
            "pbrMetallicRoughness" : {
                "baseColorFactor" : [
                    0.7678149938583374,
                    1,
                    1,
                    0.5199999809265137
                ],
                "metallicFactor" : 0,
                "roughnessFactor" : 0.009999999776482582
            }
        },
        {
            "doubleSided" : true,
            "name" : "map_Wheels_CC6_01.001",
            "pbrMetallicRoughness" : {
                "baseColorTexture" : {
                    "index" : 1
                },
                "metallicFactor" : 0,
                "roughnessFactor" : 0.8945907354354858
            }
        }
    ],
    "meshes" : [
        {
            "name" : "CarC6_0003.001",
            "primitives" : [
                {
                    "attributes" : {
                        "POSITION" : 0,
                        "NORMAL" : 1,
                        "TEXCOORD_0" : 2
                    },
                    "indices" : 3,
                    "material" : 0
                },
                {
                    "attributes" : {
                        "POSITION" : 4,
                        "NORMAL" : 5,
                        "TEXCOORD_0" : 6
                    },
                    "indices" : 7,
                    "material" : 1
                },
                {
                    "attributes" : {
                        "POSITION" : 8,
                        "NORMAL" : 9,
                        "TEXCOORD_0" : 10
                    },
                    "indices" : 11,
                    "material" : 2
                }
            ]
        }
    ],
    "textures" : [
        {
            "sampler" : 0,
            "source" : 0
        },
        {
            "sampler" : 0,
            "source" : 1
        }
    ],
    "images" : [
        {
            "mimeType" : "image/jpeg",
            "name" : "T_map_CC6_001_BaseColor",
            "uri" : "T_map_CC6_001_BaseColor.jpg"
        },
        {
            "mimeType" : "image/jpeg",
            "name" : "T_map_Wheels_CC6_01_BaseColor",
            "uri" : "T_map_Wheels_CC6_01_BaseColor.jpg"
        }
    ],
    "accessors" : [
        {
            "bufferView" : 0,
            "componentType" : 5126,
            "count" : 45094,
            "max" : [
                2.695831060409546,
                4.174215793609619,
                -0.12849199771881104
            ],
            "min" : [
                -2.695831060409546,
                -4.552791118621826,
                -4.462806224822998
            ],
            "type" : "VEC3"
        },
        {
            "bufferView" : 1,
            "componentType" : 5126,
            "count" : 45094,
            "type" : "VEC3"
        },
        {
            "bufferView" : 2,
            "componentType" : 5126,
            "count" : 45094,
            "type" : "VEC2"
        },
        {
            "bufferView" : 3,
            "componentType" : 5123,
            "count" : 210666,
            "type" : "SCALAR"
        },
        {
            "bufferView" : 4,
            "componentType" : 5126,
            "count" : 1650,
            "max" : [
                1.9279229640960693,
                1.7519079446792603,
                -2.2858378887176514
            ],
            "min" : [
                -1.9279229640960693,
                -2.836488962173462,
                -4.038671970367432
            ],
            "type" : "VEC3"
        },
        {
            "bufferView" : 5,
            "componentType" : 5126,
            "count" : 1650,
            "type" : "VEC3"
        },
        {
            "bufferView" : 6,
            "componentType" : 5126,
            "count" : 1650,
            "type" : "VEC2"
        },
        {
            "bufferView" : 7,
            "componentType" : 5123,
            "count" : 7632,
            "type" : "SCALAR"
        },
        {
            "bufferView" : 8,
            "componentType" : 5126,
            "count" : 2424,
            "max" : [
                2.600080966949463,
                3.4728260040283203,
                0
            ],
            "min" : [
                -2.600080966949463,
                -3.2544100284576416,
                -1.1794489622116089
            ],
            "type" : "VEC3"
        },
        {
            "bufferView" : 9,
            "componentType" : 5126,
            "count" : 2424,
            "type" : "VEC3"
        },
        {
            "bufferView" : 10,
            "componentType" : 5126,
            "count" : 2424,
            "type" : "VEC2"
        },
        {
            "bufferView" : 11,
            "componentType" : 5123,
            "count" : 11520,
            "type" : "SCALAR"
        }
    ],
    "bufferViews" : [
        {
            "buffer" : 0,
            "byteLength" : 541128,
            "byteOffset" : 0
        },
        {
            "buffer" : 0,
            "byteLength" : 541128,
            "byteOffset" : 541128
        },
        {
            "buffer" : 0,
            "byteLength" : 360752,
            "byteOffset" : 1082256
        },
        {
            "buffer" : 0,
            "byteLength" : 421332,
            "byteOffset" : 1443008
        },
        {
            "buffer" : 0,
            "byteLength" : 19800,
            "byteOffset" : 1864340
        },
        {
            "buffer" : 0,
            "byteLength" : 19800,
            "byteOffset" : 1884140
        },
        {
            "buffer" : 0,
            "byteLength" : 13200,
            "byteOffset" : 1903940
        },
        {
            "buffer" : 0,
            "byteLength" : 15264,
            "byteOffset" : 1917140
        },
        {
            "buffer" : 0,
            "byteLength" : 29088,
            "byteOffset" : 1932404
        },
        {
            "buffer" : 0,
            "byteLength" : 29088,
            "byteOffset" : 1961492
        },
        {
            "buffer" : 0,
            "byteLength" : 19392,
            "byteOffset" : 1990580
        },
        {
            "buffer" : 0,
            "byteLength" : 23040,
            "byteOffset" : 2009972
        }
    ],
    "samplers" : [
        {
            "magFilter" : 9729,
            "minFilter" : 9987
        }
    ],
    "buffers" : [
        {
            "byteLength" : 2033012,
            "uri" : "untitled.bin"
        }
    ]
}
